<?xml version="1.0" encoding="UTF-8" standalone="no"?>
<!DOCTYPE svg PUBLIC "-//W3C//DTD SVG 1.1//EN" "http://www.w3.org/Graphics/SVG/1.1/DTD/svg11.dtd">
<svg width="100%" height="100%" viewBox="0 0 959 840" version="1.1" xmlns="http://www.w3.org/2000/svg" xmlns:xlink="http://www.w3.org/1999/xlink" xml:space="preserve" xmlns:serif="http://www.serif.com/" style="fill-rule:evenodd;clip-rule:evenodd;stroke-linejoin:round;stroke-miterlimit:1.41421;">
    <g id="Mesa-de-trabajo1" serif:id="Mesa de trabajo1" transform="matrix(1.70469,0,0,1.54998,30.9675,29.137)">
        <rect x="-18.166" y="-18.798" width="562.296" height="541.398" style="fill:none;"/>
        <g transform="matrix(0.586617,0,0,0.64517,-18.1661,-18.7983)">
            <path d="M854.408,87.419L35.72,86.107L119.876,750.029L768.611,750.029L854.408,87.419Z"/>
        </g>
        <g id="shopping-cart" transform="matrix(0.586617,0,0,0.64517,75.7024,88.461)">
            <path d="M153,408C124.95,408 102,430.95 102,459C102,487.05 124.95,510 153,510C181.05,510 204,487.05 204,459C204,430.95 181.05,408 153,408ZM0,0L0,51L51,51L142.8,244.8L107.1,306C104.55,313.65 102,323.85 102,331.5C102,359.55 124.95,382.5 153,382.5L459,382.5L459,331.5L163.2,331.5C160.65,331.5 158.1,328.95 158.1,326.4L158.1,323.849L181.05,280.499L369.75,280.499C390.15,280.499 405.45,270.299 413.1,254.999L507.394,92.17C511.466,82.993 519.869,72.57 511.43,61.475C503.69,51.298 499.8,51 484.5,51L107.1,51L84.15,0L0,0ZM408,408C379.95,408 357,430.95 357,459C357,487.05 379.95,510 408,510C436.05,510 459,487.05 459,459C459,430.95 436.05,408 408,408Z" style="fill:rgb(235,235,235);fill-rule:nonzero;stroke:rgb(235,235,235);stroke-width:1px;"/>
        </g>
        <g id="quantity">
            <g transform="matrix(0.67766,0,0,0.759,-139.309,-25.3393)">
                <ellipse cx="855.275" cy="124.857" rx="115.93" ry="101.844" style="fill:rgb(166,26,2);stroke:rgb(166,26,2);stroke-width:0.86px;stroke-linecap:round;stroke-miterlimit:1.5;"/>
            </g>
            <g transform="matrix(6.72557,0,0,7.39687,-4530.4,-1023.58)">
                <text x="732.501px" y="151.716px" style="font-family:'ArialMT', 'Arial', sans-serif;font-size:12px;fill:rgb(235,235,235);">20</text>
            </g>
        </g>
    </g>
</svg>
